# Made in Blockbench 4.12.6
mtllib tgv_m_end_cap.mtl

o end_cap
v -0.6329550139107449 3.366650734176641 -12.25
v -0.8172743481132758 3.1977531822727263 -12.25
v -0.6751794018867238 3.412730567727274 -12.625
v -0.632955013910745 3.366650734176641 -12.625
v -0.8594987360892548 3.243833015823359 -12.625
v -0.817274348113276 3.1977531822727263 -12.625
v -0.4175779233803989 3.4058219669091967 -12.250000000658542
v -0.6616519251603823 3.3517120634246718 -12.250000000658542
v -0.43110539925153024 3.4668404673541926 -12.625000000658542
v -0.4175779233803987 3.405821966909197 -12.625000000658542
v -0.6751794010315133 3.412730563869667 -12.625000000658542
v -0.6616519251603821 3.3517120634246713 -12.625000000658542
v 0.006394599893258968 3.404340467260533 -12.250000000658542
v -0.4311054001067408 3.404340467260533 -12.250000000658542
v 0.006394599893258968 3.4668404672605324 -12.625000000658542
v 0.00639459989325919 3.4043404672605324 -12.625000000658542
v -0.4311054001067408 3.4668404672605324 -12.625000000658542
v -0.4311054001067408 3.4043404672605324 -12.625000000658542
v 0.0063945998932587456 3.4668404672605324 -12.250000000658542
v -0.8153026904396021 3.199640635736239 -12.249999999999996
v -1.036273559560398 2.9786697666154422 -12.249999999999996
v -0.8594968642637615 3.2438348095603975 -12.624999999999996
v -0.815302690439602 3.1996406357362384 -12.624999999999996
v -1.0804677333845574 3.022863940439602 -12.624999999999996
v -1.0362735595603982 2.978669766615442 -12.624999999999996
v -1.0277996912749947 2.989327067965772 -12.249999999999996
v -1.2964494954484067 2.5676313450593296 -12.249999999999996
v -1.0805116566382997 3.0229082934874483 -12.624999999999996
v -1.027799691274995 2.989327067965772 -12.624999999999996
v -1.3491614608117117 2.6012125705810054 -12.624999999999996
v -1.2964494954484063 2.567631345059329 -12.624999999999996
v -1.2914189791318407 2.5772949219566352 -12.249999999999996
v -1.468812465667725 2.25000003845215 -12.249999999999996
v -1.4062500000000004 2.25 -12.249999999999996
v -1.349161449913796 2.6012126364794534 -12.624999999999996
v -1.2914189791318402 2.5772949219566352 -12.624999999999996
v -1.4688124656677246 2.25000003845215 -12.624999999999996
v -1.40625 2.25 -12.624999999999996
v -1.4687500225278867 2.312500282569677 -12.624999999999996
v -0.43206249999999896 3.469192499195337 -12.624999999999996
v -0.4320624999999992 3.4691924991953367 -9.499999999999996
v -0.6751794018867241 3.412730567727273 -12.624999999999996
v -0.7433733939619944 3.441956797330022 -9.499999999999995
v -0.7433733939619942 3.441956797330022 -9.874999999999995
v -0.6751794018867241 3.4127305677272735 -12.624999999999996
v -0.743349476246335 3.4418990548564974 -9.874999999999995
v -0.8594968642637615 3.2438348095603975 -12.624999999999996
v -1.032061830156112 3.3223104822424063 -9.874999999999995
v 0.005437499999999762 3.469129999999998 -12.624999999999996
v 0.005437499999999207 3.469129999999999 -9.499999999999996
v -0.4320625000000004 3.469129999999998 -12.624999999999996
v -0.4320625000000012 3.469129999999999 -9.499999999999996
v -0.8594968642637613 3.2438348095603975 -12.624999999999996
v -1.0320857478717707 3.3223682247159307 -9.874999999999995
v -1.0805116566382995 3.0229082934874483 -12.624999999999996
v -1.243207687751665 3.091969056962767 -9.874999999999995
v -1.0805116566382997 3.0229082934874483 -12.624999999999996
v -1.2432078341218789 3.0919686800587116 -9.874999999999995
v -1.3491614608117117 2.6012125705810054 -12.624999999999996
v -1.3928416468268587 2.6808531584648767 -9.874999999999995
v -1.3491614499137958 2.6012126364794534 -12.624999999999996
v -1.3927799254589763 2.6808424214663855 -9.874999999999996
v -1.4688124656677246 2.25000003845215 -12.624999999999996
v -1.4687510031882582 2.2499890295235443 -9.874999999999996
v -1.4687500225278867 2.312500282569677 -12.624999999999996
v -1.4560156048767094 2.3222150624334237 -9.874999999999996
v -1.4375000000000004 2.25 -12.249999999999996
v 0.062499999999999445 3.4375 -12.249999999999996
v 0.06249999999999911 2.25 -12.249999999999996
v -0.35923488889108923 3.4375 -12.249999999999996
v -0.6674571979753381 3.366174736943038 -12.249999999999996
v -1.0569594394189625 2.9891300110899097 -12.249999999999996
v -1.309325775599235 2.5730086499975506 -12.249999999999996
v -1.2431491040892155 3.0919473040749645 -9.874999999999995
v -1.2431491040892158 3.0919473040749645 -9.499999999999995
v -1.3927829167941959 2.68083178248113 -9.874999999999995
v -1.392782916794196 2.6808317824811305 -9.499999999999995
v -1.032039668036032 3.3223260003259494 -9.874999999999995
v -1.0320396680360324 3.32232600032595 -9.499999999999995
v -1.2431616079159258 3.091926832572786 -9.874999999999995
v -1.2431616079159262 3.091926832572786 -9.499999999999995
v -0.743349476246335 3.4418990548564974 -9.874999999999995
v -0.7433494762463353 3.4418990548564974 -9.499999999999995
v -1.032061830156112 3.3223104822424063 -9.874999999999995
v -1.0320618301561122 3.3223104822424063 -9.499999999999995
v -1.3927799254589768 2.6808424214663855 -9.874999999999996
v -1.392779925458977 2.680842421466386 -9.499999999999996
v -1.4687510031882587 2.2499890295235447 -9.874999999999996
v -1.468751003188259 2.2499890295235447 -9.499999999999996
v 0.6329550139107447 3.366650734176641 -12.249999999999998
v 0.8172743481132754 3.1977531822727268 -12.249999999999998
v 0.6751794018867237 3.4127305677272743 -12.624999999999998
v 0.6329550139107454 3.366650734176641 -12.624999999999998
v 0.8594987360892541 3.2438330158233595 -12.624999999999998
v 0.8172743481132756 3.1977531822727268 -12.624999999999998
v 0.4175779233803989 3.405821966909197 -12.25000000065854
v 0.6616519251603816 3.3517120634246726 -12.25000000065854
v 0.4311053992515297 3.466840467354193 -12.62500000065854
v 0.41757792338039845 3.405821966909197 -12.62500000065854
v 0.6751794010315131 3.412730563869667 -12.62500000065854
v 0.6616519251603818 3.3517120634246718 -12.62500000065854
v -0.006394599893259523 3.4043404672605337 -12.25000000065854
v 0.43110540010674026 3.4043404672605333 -12.25000000065854
v -0.00639459989325919 3.466840467260533 -12.62500000065854
v -0.006394599893259301 3.404340467260533 -12.62500000065854
v 0.4311054001067407 3.4668404672605324 -12.62500000065854
v 0.4311054001067405 3.4043404672605324 -12.62500000065854
v -0.006394599893259079 3.466840467260533 -12.25000000065854
v 0.8153026904396019 3.199640635736239 -12.249999999999995
v 1.0362735595603978 2.9786697666154422 -12.249999999999995
v 0.8594968642637615 3.243834809560398 -12.624999999999995
v 0.8153026904396017 3.1996406357362392 -12.624999999999995
v 1.0804677333845567 3.0228639404396027 -12.624999999999995
v 1.0362735595603976 2.978669766615442 -12.624999999999995
v 1.0277996912749945 2.9893270679657724 -12.249999999999995
v 1.2964494954484063 2.56763134505933 -12.249999999999996
v 1.0805116566382993 3.0229082934874487 -12.624999999999995
v 1.0277996912749945 2.9893270679657724 -12.624999999999995
v 1.3491614608117115 2.601212570581006 -12.624999999999995
v 1.2964494954484058 2.5676313450593296 -12.624999999999995
v 1.2914189791318402 2.5772949219566357 -12.249999999999995
v 1.4688124656677246 2.25000003845215 -12.249999999999996
v 1.4062500000000004 2.2500000000000004 -12.249999999999995
v 1.3491614499137956 2.601212636479454 -12.624999999999995
v 1.2914189791318398 2.5772949219566357 -12.624999999999995
v 1.4688124656677242 2.2500000384521504 -12.624999999999995
v 1.4062499999999996 2.2500000000000004 -12.624999999999995
v 1.4687500225278862 2.3125002825696774 -12.624999999999995
v 0.4320624999999989 3.469192499195337 -12.624999999999995
v 0.4320624999999989 3.469192499195337 -9.499999999999996
v 0.6751794018867239 3.412730567727273 -12.624999999999995
v 0.7433733939619938 3.4419567973300222 -9.499999999999995
v 0.7433733939619938 3.441956797330022 -9.874999999999993
v 0.6751794018867234 3.4127305677272735 -12.624999999999995
v 0.7433494762463346 3.4418990548564974 -9.874999999999993
v 0.8594968642637615 3.243834809560398 -12.624999999999995
v 1.0320618301561117 3.3223104822424068 -9.874999999999995
v -0.005437499999999762 3.469129999999998 -12.624999999999995
v -0.005437499999999651 3.4691299999999994 -9.499999999999995
v 0.43206250000000024 3.4691299999999985 -12.624999999999995
v 0.43206250000000046 3.4691299999999994 -9.499999999999996
v 0.8594968642637613 3.243834809560398 -12.624999999999995
v 1.03208574787177 3.3223682247159307 -9.874999999999995
v 1.080511656638299 3.0229082934874487 -12.624999999999995
v 1.2432076877516645 3.091969056962767 -9.874999999999995
v 1.0805116566382993 3.0229082934874487 -12.624999999999995
v 1.2432078341218786 3.091968680058712 -9.874999999999995
v 1.3491614608117115 2.601212570581006 -12.624999999999995
v 1.392841646826858 2.6808531584648767 -9.874999999999995
v 1.3491614499137952 2.601212636479454 -12.624999999999995
v 1.3927799254589757 2.680842421466386 -9.874999999999996
v 1.4688124656677242 2.2500000384521504 -12.624999999999995
v 1.4687510031882582 2.2499890295235447 -9.874999999999996
v 1.4687500225278862 2.3125002825696774 -12.624999999999995
v 1.456015604876709 2.3222150624334237 -9.874999999999996
v 1.4375 2.2500000000000004 -12.249999999999996
v -0.06249999999999978 3.4375000000000004 -12.249999999999995
v -0.06249999999999911 2.2500000000000004 -12.249999999999995
v 0.359234888891089 3.4375000000000004 -12.249999999999995
v 0.6674571979753381 3.3661747369430386 -12.249999999999995
v 1.0569594394189628 2.98913001108991 -12.249999999999995
v 1.309325775599235 2.573008649997551 -12.249999999999996
v 1.2431491040892153 3.0919473040749654 -9.874999999999995
v 1.2431491040892153 3.091947304074965 -9.499999999999995
v 1.3927829167941956 2.6808317824811305 -9.874999999999995
v 1.3927829167941956 2.680831782481131 -9.499999999999995
v 1.0320396680360315 3.32232600032595 -9.874999999999995
v 1.032039668036032 3.3223260003259503 -9.499999999999995
v 1.243161607915925 3.0919268325727867 -9.874999999999995
v 1.2431616079159258 3.0919268325727867 -9.499999999999995
v 0.7433494762463346 3.4418990548564974 -9.874999999999993
v 0.7433494762463351 3.441899054856498 -9.499999999999995
v 1.0320618301561117 3.3223104822424068 -9.874999999999995
v 1.032061830156112 3.3223104822424063 -9.499999999999995
v 1.3927799254589766 2.6808424214663855 -9.874999999999996
v 1.3927799254589766 2.6808424214663864 -9.499999999999996
v 1.4687510031882582 2.2499890295235447 -9.874999999999996
v 1.4687510031882587 2.2499890295235447 -9.499999999999996
vt 0.25 0.8235294117647058
vt 0.25 0.8823529411764706
vt 0.23529411764705882 0.8823529411764706
vt 0.23529411764705882 0.8235294117647058
vt 0.7058823529411765 0.6764705882352942
vt 0.7058823529411765 0.7352941176470589
vt 0.6176470588235294 0.7352941176470589
vt 0.6176470588235294 0.6764705882352942
vt 0.17647058823529413 0.7058823529411764
vt 0.17647058823529413 0.7647058823529411
vt 0.16176470588235295 0.7647058823529411
vt 0.16176470588235295 0.7058823529411764
vt 0.7058823529411765 0.6176470588235294
vt 0.7058823529411765 0.6764705882352942
vt 0.6176470588235294 0.6764705882352942
vt 0.6176470588235294 0.6176470588235294
vt 0.19117647058823528 0.6911764705882353
vt 0.19117647058823528 0.7941176470588236
vt 0.17647058823529413 0.7941176470588236
vt 0.17647058823529413 0.6911764705882353
vt 0.6176470588235294 0.6029411764705883
vt 0.6176470588235294 0.7058823529411764
vt 0.5294117647058824 0.7058823529411764
vt 0.5294117647058824 0.6029411764705883
vt 0.5735294117647058 0.36764705882352944
vt 0.5735294117647058 0.3529411764705882
vt 0.6617647058823529 0.3529411764705882
vt 0.6617647058823529 0.36764705882352944
vt 0.19117647058823528 0.9852941176470589
vt 0.2647058823529412 0.9852941176470589
vt 0.2647058823529412 1
vt 0.19117647058823528 1
vt 0.5735294117647058 0.3529411764705882
vt 0.5735294117647058 0.42647058823529416
vt 0.4852941176470588 0.42647058823529416
vt 0.4852941176470588 0.3529411764705882
vt 0.07352941176470588 0.9852941176470589
vt 0.19117647058823528 0.9852941176470589
vt 0.19117647058823528 1
vt 0.07352941176470588 1
vt 0.5735294117647058 0.42647058823529416
vt 0.5735294117647058 0.5441176470588236
vt 0.4852941176470588 0.5441176470588236
vt 0.4852941176470588 0.42647058823529416
vt 0.6176470588235294 0.6176470588235294
vt 0.6176470588235294 0.6029411764705883
vt 0.7058823529411765 0.6029411764705883
vt 0.7058823529411765 0.6176470588235294
vt 0.6617647058823529 0.5147058823529411
vt 0.6617647058823529 0.6029411764705883
vt 0.5735294117647058 0.6029411764705883
vt 0.5735294117647058 0.5147058823529411
vt 0.20588249540579193 0.823514531105983
vt 0.2205880928295022 0.823514531105983
vt 0.20589641949910323 0.8382352941176471
vt 0.14031166861933442 0.9705882352941176
vt 0.22058823529411764 0.9705882352941176
vt 0.22058823529411764 0.9807864131765132
vt 0.1323529411764706 0.9852941176470589
vt 0.6911764705882353 0.7352941176470589
vt 0.6911764705882353 0.8088235294117647
vt 0.6029411764705882 0.7352941176470589
vt 0.9117647058823529 0.9264705882352942
vt 1 1
vt 0.2647058823529412 1
vt 0.2647058823529412 0.9418558823529412
vt 0 0.01308567662904303
vt 0.07352941176470588 0.014470951990153913
vt 0.07352941176470588 0.6617647058823529
vt 0.018242623355590393 0.6611112988528796
vt 1 0.9117647058823529
vt 0.2647058823529412 0.9117647058823529
vt 0.2647058823529412 0.8088235294117647
vt 1 0.8088235294117647
vt 0.3092692918460823 0.16176470588235292
vt 0.38279843591912444 0.16176470588235292
vt 0.3966130610950942 0.8088235294117647
vt 0.32315423642511615 0.808613634088795
vt 0.20557650905074842 0.16176470588235292
vt 0.30851899153195955 0.16176470588235292
vt 0.3063390081809184 0.8088235294117647
vt 0.19148100846804042 0.8071931486047447
vt 0.27941176470588236 0.9117647058823529
vt 0.9264705882352942 0.9117647058823529
vt 0.9264705882352942 0.9264705882352942
vt 0.27941176470588236 0.923700000000458
vt 0.07802945309792936 0.044117647058823484
vt 0.1637137343219405 0.044117647058823484
vt 0.14704301232048544 0.6911764705882353
vt 0.07525685391335361 0.6908480647120194
vt 0.5204635659587418 0.6431435136013832
vt 0.5090786454560847 0.7167067637529667
vt 0.4721834928647876 0.8088235294117647
vt 0.4721834928647876 0.525080086199866
vt 0.10895754996998404 0.703749459520575
vt 0.272016563019594 0.9359607853189328
vt 0.00004226050981778914 1
vt 0.00004226050981778914 0.6683908830463201
vt 0.39766124166304384 0.8088235294117647
vt 0.3976612416630437 0.45588261311284095
vt 0.47366228774872104 0.4860411763614747
vt 0.6029411764705882 0.7058823529411764
vt 0.6029411764705882 0.8088235294117647
vt 0.5147058823529411 0.8088235294117647
vt 0.5147058823529411 0.7058823529411764
vt 0.6617647058823529 0.4411764705882353
vt 0.6617647058823529 0.5147058823529411
vt 0.5735294117647058 0.5147058823529411
vt 0.5735294117647058 0.4411764705882353
vt 0.6617647058823529 0.36764705882352944
vt 0.6617647058823529 0.4411764705882353
vt 0.5735294117647058 0.4411764705882353
vt 0.5735294117647058 0.36764705882352944
vt 0.4852941176470588 0.3529411764705882
vt 0.4852941176470588 0.4558823529411765
vt 0.39705882352941174 0.4558823529411765
vt 0.39705882352941174 0.3529411764705882
vt 0.23529411764705882 0.8823529411764706
vt 0.25 0.8823529411764706
vt 0.25 0.8235294117647058
vt 0.23529411764705882 0.8235294117647058
vt 0.6176470588235294 0.7352941176470589
vt 0.7058823529411765 0.7352941176470589
vt 0.7058823529411765 0.6764705882352942
vt 0.6176470588235294 0.6764705882352942
vt 0.16176470588235295 0.7647058823529411
vt 0.17647058823529413 0.7647058823529411
vt 0.17647058823529413 0.7058823529411764
vt 0.16176470588235295 0.7058823529411764
vt 0.6176470588235294 0.6764705882352942
vt 0.7058823529411765 0.6764705882352942
vt 0.7058823529411765 0.6176470588235294
vt 0.6176470588235294 0.6176470588235294
vt 0.17647058823529413 0.7941176470588236
vt 0.19117647058823528 0.7941176470588236
vt 0.19117647058823528 0.6911764705882353
vt 0.17647058823529413 0.6911764705882353
vt 0.5294117647058824 0.7058823529411764
vt 0.6176470588235294 0.7058823529411764
vt 0.6176470588235294 0.6029411764705883
vt 0.5294117647058824 0.6029411764705883
vt 0.6617647058823529 0.3529411764705882
vt 0.5735294117647058 0.3529411764705882
vt 0.5735294117647058 0.36764705882352944
vt 0.6617647058823529 0.36764705882352944
vt 0.2647058823529412 1
vt 0.2647058823529412 0.9852941176470589
vt 0.19117647058823528 0.9852941176470589
vt 0.19117647058823528 1
vt 0.4852941176470588 0.42647058823529416
vt 0.5735294117647058 0.42647058823529416
vt 0.5735294117647058 0.3529411764705882
vt 0.4852941176470588 0.3529411764705882
vt 0.19117647058823528 1
vt 0.19117647058823528 0.9852941176470589
vt 0.07352941176470588 0.9852941176470589
vt 0.07352941176470588 1
vt 0.4852941176470588 0.5441176470588236
vt 0.5735294117647058 0.5441176470588236
vt 0.5735294117647058 0.42647058823529416
vt 0.4852941176470588 0.42647058823529416
vt 0.7058823529411765 0.6029411764705883
vt 0.6176470588235294 0.6029411764705883
vt 0.6176470588235294 0.6176470588235294
vt 0.7058823529411765 0.6176470588235294
vt 0.5735294117647058 0.6029411764705883
vt 0.6617647058823529 0.6029411764705883
vt 0.6617647058823529 0.5147058823529411
vt 0.5735294117647058 0.5147058823529411
vt 0.2205880928295022 0.823514531105983
vt 0.20588249540579193 0.823514531105983
vt 0.20589641949910323 0.8382352941176471
vt 0.22058823529411764 0.9807864131765132
vt 0.22058823529411764 0.9705882352941176
vt 0.14031166861933442 0.9705882352941176
vt 0.1323529411764706 0.9852941176470589
vt 0.6911764705882353 0.8088235294117647
vt 0.6911764705882353 0.7352941176470589
vt 0.6029411764705882 0.7352941176470589
vt 0.2647058823529412 1
vt 1 1
vt 0.9117647058823529 0.9264705882352942
vt 0.2647058823529412 0.9418558823529412
vt 0.07352941176470588 0.6617647058823529
vt 0.07352941176470588 0.014470951990153913
vt 0 0.01308567662904303
vt 0.018242623355590393 0.6611112988528796
vt 0.2647058823529412 0.8088235294117647
vt 0.2647058823529412 0.9117647058823529
vt 1 0.9117647058823529
vt 1 0.8088235294117647
vt 0.3966130610950942 0.8088235294117647
vt 0.38279843591912444 0.16176470588235292
vt 0.3092692918460823 0.16176470588235292
vt 0.32315423642511615 0.808613634088795
vt 0.3063390081809184 0.8088235294117647
vt 0.30851899153195955 0.16176470588235292
vt 0.20557650905074842 0.16176470588235292
vt 0.19148100846804042 0.8071931486047447
vt 0.9264705882352942 0.9264705882352942
vt 0.9264705882352942 0.9117647058823529
vt 0.27941176470588236 0.9117647058823529
vt 0.27941176470588236 0.923700000000458
vt 0.14704301232048544 0.6911764705882353
vt 0.1637137343219405 0.044117647058823484
vt 0.07802945309792936 0.044117647058823484
vt 0.07525685391335361 0.6908480647120194
vt 0.4721834928647876 0.8088235294117647
vt 0.5090786454560847 0.7167067637529667
vt 0.5204635659587418 0.6431435136013832
vt 0.4721834928647876 0.525080086199866
vt 0.00004226050981778914 1
vt 0.272016563019594 0.9359607853189328
vt 0.10895754996998404 0.703749459520575
vt 0.00004226050981778914 0.6683908830463201
vt 0.3976612416630437 0.45588261311284095
vt 0.39766124166304384 0.8088235294117647
vt 0.47366228774872104 0.4860411763614747
vt 0.5147058823529411 0.8088235294117647
vt 0.6029411764705882 0.8088235294117647
vt 0.6029411764705882 0.7058823529411764
vt 0.5147058823529411 0.7058823529411764
vt 0.5735294117647058 0.5147058823529411
vt 0.6617647058823529 0.5147058823529411
vt 0.6617647058823529 0.4411764705882353
vt 0.5735294117647058 0.4411764705882353
vt 0.5735294117647058 0.4411764705882353
vt 0.6617647058823529 0.4411764705882353
vt 0.6617647058823529 0.36764705882352944
vt 0.5735294117647058 0.36764705882352944
vt 0.39705882352941174 0.4558823529411765
vt 0.4852941176470588 0.4558823529411765
vt 0.4852941176470588 0.3529411764705882
vt 0.39705882352941174 0.3529411764705882
vn -3.8872519608404204e-16 9.55515217170358e-17 -1
vn 0.6755902076156601 -0.7372773368101243 -3.4094943522552424e-16
vn -3.8872519608404204e-16 9.55515217170358e-17 -1
vn 0.21643961393810274 -0.9762960071199334 -7.424327588984826e-16
vn -3.8872519608404204e-16 9.55515217170358e-17 -1
vn -5.551115123125783e-17 -1 7.903730580069568e-16
vn 1 2.55351295663786e-15 3.6082248300317864e-16
vn -3.8872519608404204e-16 9.55515217170358e-17 -1
vn 0.7071067811865478 -0.7071067811865474 8.309670897296498e-16
vn -3.8872519608404204e-16 9.55515217170358e-17 -1
vn 0.8433914458128863 -0.5372996083468232 -5.523968971974704e-16
vn -6.146201123602425e-7 -0.9999999999998113 4.251054134377467e-16
vn 0.9436083607698127 -0.3310638329466195 8.962555524189176e-16
vn -3.8872519608404204e-16 9.55515217170358e-17 -1
vn -3.8872519608404204e-16 9.55515217170358e-17 -1
vn -0.08715424322223486 0.9961948292820836 -4.850539389598429e-16
vn -0.0871542432222357 0.9961948292820835 1.2242588936637676e-16
vn -0.38261228477554926 0.9237077670356822 -0.019282133097452404
vn -2.220446049250313e-16 1 -1.7156820774874527e-16
vn -0.7356977608801563 0.6741427929493046 -0.06542399674764245
vn -0.9377630424192032 0.3413178342355033 -0.06405163780470766
vn -0.984807752758353 0.17364817762216345 0.000022705602426244015
vn -0.9845978784962326 0.17361117112720179 -0.02064410135025927
vn -3.8872519608404204e-16 9.55515217170358e-17 -1
vn -3.8872519608404204e-16 9.55515217170358e-17 -1
vn -3.8872519608404204e-16 9.55515217170358e-17 -1
vn -0.9396926207859082 0.34202014332566927 -9.17121449414109e-16
vn -0.7372773368101234 0.675590207615661 -8.785300874505004e-16
vn -0.38268343236509167 0.923879532511286 -6.669472201497037e-16
vn -0.9848077530122082 0.17364817766693033 -4.834907230211273e-16
vn -3.8872519608404204e-16 9.55515217170358e-17 -1
vn -0.6755902076156602 -0.7372773368101241 -8.174231693317196e-16
vn -3.8872519608404204e-16 9.55515217170358e-17 -1
vn -0.21643961393810213 -0.9762960071199337 1.0119940727572808e-15
vn -3.8872519608404204e-16 9.55515217170358e-17 -1
vn -4.440892098500627e-16 -1 2.490771892425306e-15
vn -1 7.049916206369744e-15 -2.829180782048612e-16
vn -3.8872519608404204e-16 9.55515217170358e-17 -1
vn -0.7071067811865493 -0.7071067811865457 2.7476618026966157e-16
vn -3.8872519608404204e-16 9.55515217170358e-17 -1
vn -0.8433914458128863 -0.5372996083468231 2.4189454493389626e-16
vn 6.146201143031327e-7 -0.9999999999998112 -1.285646884404892e-16
vn -0.9436083607698127 -0.3310638329466195 6.336121218985659e-16
vn -3.8872519608404204e-16 9.55515217170358e-17 -1
vn -3.8872519608404204e-16 9.55515217170358e-17 -1
vn 0.08715424322223503 0.9961948292820835 -7.531589433305842e-16
vn 0.08715424322223614 0.9961948292820835 3.4127594980850637e-17
vn 0.3826122847755481 0.9237077670356828 -0.019282133097452463
vn -2.220446049250313e-16 1 -3.6066387971394347e-16
vn 0.7356977608801561 0.6741427929493047 -0.06542399674764218
vn 0.9377630424192032 0.341317834235503 -0.06405163780470759
vn 0.984807752758352 0.1736481776221698 0.000022705602426039924
vn 0.9845978784962327 0.17361117112720065 -0.020644101350259316
vn -3.8872519608404204e-16 9.55515217170358e-17 -1
vn -3.8872519608404204e-16 9.55515217170358e-17 -1
vn -3.8872519608404204e-16 9.55515217170358e-17 -1
vn 0.9396926207859082 0.34202014332566955 -3.983214215664608e-16
vn 0.7372773368101243 0.6755902076156601 -2.6583899056260576e-15
vn 0.3826834323650924 0.9238795325112859 -1.6924245505215552e-15
vn 0.9848077530122081 0.17364817766693041 -7.90188639282859e-16
usemtl m_24029d53-ab6e-a517-41b3-a47538ea5735
f 5/1/1 3/2/1 4/3/1 6/4/1
f 6/5/2 4/6/2 1/7/2 2/8/2
f 11/9/3 9/10/3 10/11/3 12/12/3
f 12/13/4 10/14/4 7/15/4 8/16/4
f 17/17/5 15/18/5 16/19/5 18/20/5
f 18/21/6 16/22/6 13/23/6 14/24/6
f 19/25/7 13/26/7 16/27/7 15/28/7
f 24/29/8 22/30/8 23/31/8 25/32/8
f 25/33/9 23/34/9 20/35/9 21/36/9
f 30/37/10 28/38/10 29/39/10 31/40/10
f 31/41/11 29/42/11 26/43/11 27/44/11
f 34/45/12 33/46/12 37/47/12 38/48/12
f 38/49/13 36/50/13 32/51/13 34/52/13
f 37/53/14 39/54/14 38/55/14
f 39/56/15 35/57/15 36/58/15 38/59/15
f 43/60/16 41/61/16 44/62/16
f 44/63/17 41/64/17 40/65/17 42/66/17
f 48/67/18 46/68/18 45/69/18 47/70/18
f 50/71/19 49/72/19 51/73/19 52/74/19
f 56/75/20 54/76/20 53/77/20 55/78/20
f 60/79/21 58/80/21 57/81/21 59/82/21
f 63/83/22 64/84/22 66/85/22 65/86/22
f 66/87/23 62/88/23 61/89/23 65/90/23
f 71/91/24 70/92/24 68/93/24 72/94/24
f 72/95/25 68/96/25 69/97/25 73/98/25
f 69/99/26 67/100/26 73/101/26
f 77/102/27 75/103/27 74/104/27 76/105/27
f 81/106/28 79/107/28 78/108/28 80/109/28
f 85/110/29 83/111/29 82/112/29 84/113/29
f 89/114/30 87/115/30 86/116/30 88/117/30
f 93/118/31 92/119/31 94/120/31 95/121/31
f 90/122/32 93/123/32 95/124/32 91/125/32
f 99/126/33 98/127/33 100/128/33 101/129/33
f 96/130/34 99/131/34 101/132/34 97/133/34
f 105/134/35 104/135/35 106/136/35 107/137/35
f 102/138/36 105/139/36 107/140/36 103/141/36
f 105/142/37 102/143/37 108/144/37 104/145/37
f 112/146/38 111/147/38 113/148/38 114/149/38
f 109/150/39 112/151/39 114/152/39 110/153/39
f 118/154/40 117/155/40 119/156/40 120/157/40
f 115/158/41 118/159/41 120/160/41 116/161/41
f 126/162/42 122/163/42 123/164/42 127/165/42
f 121/166/43 125/167/43 127/168/43 123/169/43
f 128/170/44 126/171/44 127/172/44
f 125/173/45 124/174/45 128/175/45 127/176/45
f 130/177/46 132/178/46 133/179/46
f 129/180/47 130/181/47 133/182/47 131/183/47
f 134/184/48 135/185/48 137/186/48 136/187/48
f 140/188/49 138/189/49 139/190/49 141/191/49
f 142/192/50 143/193/50 145/194/50 144/195/50
f 146/196/51 147/197/51 149/198/51 148/199/51
f 155/200/52 153/201/52 152/202/52 154/203/52
f 150/204/53 151/205/53 155/206/53 154/207/53
f 157/208/54 159/209/54 160/210/54 161/211/54
f 158/212/55 157/213/55 161/214/55 162/215/55
f 156/216/56 158/217/56 162/218/56
f 163/219/57 164/220/57 166/221/57 165/222/57
f 167/223/58 168/224/58 170/225/58 169/226/58
f 171/227/59 172/228/59 174/229/59 173/230/59
f 175/231/60 176/232/60 178/233/60 177/234/60