# Made in Blockbench 5.1.4
mtllib ratp_slab_platform.mtl

o cube
v -1.5 0.515625 0.5
v -1.5 0.515625 -0.5
v -1.5 0.015625 0.5
v -1.5 0.015625 -0.5
v -2.5 0.515625 -0.5
v -2.5 0.515625 0.5
v -2.5 0.015625 -0.5
v -2.5 0.015625 0.5
vt 0 0.5
vt 1 0.5
vt 1 0
vt 0 0
vt 0 0.5
vt 1 0.5
vt 1 0
vt 0 0
vt 0 0.5
vt 1 0.5
vt 1 0
vt 0 0
vt 0 1
vt 0.125 1
vt 0.125 0.96875
vt 0 0.96875
vt 0 0
vt 0 1
vt 1 1
vt 1 0
vt 0 1
vt 1 1
vt 1 0
vt 0 0
vn 0 0 -1
vn 1 0 0
vn 0 0 1
vn -1 0 0
vn 0 1 0
vn 0 -1 0
usemtl m_4e949a33-8389-555c-e479-13918df53f01
f 4/4/1 7/3/1 5/2/1 2/1/1
f 3/8/2 4/7/2 2/6/2 1/5/2
f 8/12/3 3/11/3 1/10/3 6/9/3
usemtl none
f 7/16/4 8/15/4 6/14/4 5/13/4
usemtl m_d2c30089-436e-64fe-940e-3c553cb4f0f3
f 6/20/5 1/19/5 2/18/5 5/17/5
usemtl m_4e949a33-8389-555c-e479-13918df53f01
f 7/24/6 4/23/6 3/22/6 8/21/6
o cube
v -2.5 0.515625 0.5
v -2.5 0.515625 -0.5
v -2.5 0.015625 0.5
v -2.5 0.015625 -0.5
v -3.5 0.515625 -0.5
v -3.5 0.515625 0.5
v -3.5 0.015625 -0.5
v -3.5 0.015625 0.5
vt 0 0.5
vt 1 0.5
vt 1 0
vt 0 0
vt 0 1
vt 0.125 1
vt 0.125 0.875
vt 0 0.875
vt 0 0.5
vt 1 0.5
vt 1 0
vt 0 0
vt 0 0.5
vt 1 0.5
vt 1 0
vt 0 0
vt 0 0
vt 0 1
vt 1 1
vt 1 0
vt 0 1
vt 1 1
vt 1 0
vt 0 0
vn 0 0 -1
vn 1 0 0
vn 0 0 1
vn -1 0 0
vn 0 1 0
vn 0 -1 0
usemtl m_3bfcfacb-bc12-d2f2-f67b-8433d1941a53
f 12/28/7 15/27/7 13/26/7 10/25/7
usemtl none
f 11/32/8 12/31/8 10/30/8 9/29/8
usemtl m_3bfcfacb-bc12-d2f2-f67b-8433d1941a53
f 16/36/9 11/35/9 9/34/9 14/33/9
f 15/40/10 16/39/10 14/38/10 13/37/10
f 14/44/11 9/43/11 10/42/11 13/41/11
f 15/48/12 12/47/12 11/46/12 16/45/12